# This file uses centimeters as units for non-parametric coordinates.

mtllib SM_Pyramid_02.mtl
g default
v -110.058441 -1.382970 110.058449
v 110.058441 -1.382970 110.058449
v -110.058441 -1.382970 -110.058449
v 110.058441 -1.382970 -110.058449
v -33.456390 95.760254 33.456402
v 33.423111 95.799934 -33.423100
v 33.392654 95.836212 33.392651
v -33.487427 95.723282 -33.487446
v 34.313919 97.382858 34.313915
v 0.000031 138.261169 -0.000004
v 34.344360 97.346573 -34.344364
v -34.408691 97.269905 -34.408741
v -34.377625 97.306885 34.377682
v -108.414429 6.462443 108.414429
v 108.409271 6.468577 108.409271
v 108.411774 6.465621 -108.411774
v -108.416931 6.459460 -108.416939
vt 0.962426 0.962435
vt 0.037562 0.962435
vt 0.347222 0.652736
vt 0.652536 0.652736
vt 0.037562 0.037571
vt 0.962426 0.037571
vt 0.652536 0.347422
vt 0.347222 0.347422
vt 0.500138 0.499955
vt 0.627141 0.372804
vt 0.627141 0.627350
vt 0.372595 0.627350
vt 0.372595 0.372804
vt 0.037562 0.000000
vt 0.962004 0.000000
vt 1.000000 0.040034
vt 1.000000 0.962004
vt 0.037562 1.000000
vt 0.962003 1.000000
vt -0.000000 0.035957
vt -0.000000 0.959973
vn 0.000001 0.582960 -0.812501
vn 0.000001 0.582967 -0.812496
vn -0.000000 0.642930 -0.765925
vn -0.000000 0.642930 -0.765925
vn 0.000001 0.582974 0.812491
vn 0.000001 0.582966 0.812496
vn 0.000000 0.642930 0.765925
vn 0.000000 0.642930 0.765925
vn 0.765925 0.642930 0.000000
vn 0.765925 0.642930 0.000000
vn 0.765925 0.642930 0.000000
vn -0.812500 0.582962 0.000001
vn -0.812502 0.582958 0.000001
vn -0.765925 0.642930 0.000000
vn -0.765925 0.642930 0.000000
vn 0.000000 0.642930 -0.765925
vn 0.000000 0.642930 -0.765925
vn 0.000000 0.642930 -0.765925
vn 0.000000 0.642930 0.765925
vn 0.000000 0.642930 0.765925
vn 0.000000 0.642930 0.765925
vn 0.765925 0.642930 0.000000
vn 0.765925 0.642930 0.000000
vn 0.812493 0.582971 0.000001
vn 0.812490 0.582975 0.000001
vn -0.765925 0.642930 0.000000
vn -0.765925 0.642930 0.000000
vn -0.765925 0.642930 0.000000
vn 0.859137 -0.511745 0.000660
vn 0.859137 -0.511745 0.000660
vn 0.859137 -0.511745 0.000660
vn 0.859137 -0.511745 0.000660
vn 0.001394 -0.511757 -0.859129
vn 0.001394 -0.511757 -0.859129
vn 0.001394 -0.511757 -0.859129
vn 0.001394 -0.511757 -0.859129
vn 0.001382 -0.511752 0.859132
vn 0.001382 -0.511752 0.859132
vn 0.001382 -0.511752 0.859132
vn 0.001382 -0.511752 0.859132
vn -0.859137 -0.511746 0.000672
vn -0.859137 -0.511746 0.000672
vn -0.859137 -0.511746 0.000672
vn -0.859137 -0.511746 0.000672
vn 0.000009 0.205328 0.978693
vn 0.000009 0.205328 0.978693
vn 0.000001 0.582966 0.812496
vn 0.000001 0.582974 0.812491
vn 0.812490 0.582975 0.000001
vn 0.812493 0.582971 0.000001
vn 0.978669 0.205446 0.000004
vn 0.978669 0.205446 0.000004
vn 0.000009 0.205103 -0.978741
vn 0.000001 0.582967 -0.812496
vn 0.000001 0.582960 -0.812501
vn 0.000009 0.205103 -0.978740
vn -0.978765 0.204984 0.000004
vn -0.812502 0.582958 0.000001
vn -0.812500 0.582962 0.000001
vn -0.978765 0.204984 0.000004
s off
g SM_Pyramid:SM_Pyramid1
usemtl lambert2SG
f 16/1/1 17/2/2 8/3/3 6/4/4
f 14/5/5 15/6/6 7/7/7 5/8/8
usemtl lambert3SG
f 10/9/9 9/10/10 11/11/11
usemtl lambert2SG
f 17/2/12 14/5/13 5/8/14 8/3/15
usemtl lambert3SG
f 11/11/16 12/12/17 10/9/18
f 13/13/19 9/10/20 10/9/21
usemtl lambert2SG
f 6/4/22 7/7/23 15/6/24 16/1/25
usemtl lambert3SG
f 12/12/26 13/13/27 10/9/28
f 7/7/29 6/4/30 11/11/31 9/10/32
f 6/4/33 8/3/34 12/12/35 11/11/36
f 5/8/37 7/7/38 9/10/39 13/13/40
f 8/3/41 5/8/42 13/13/43 12/12/44
usemtl lambert2SG
f 1/14/45 2/15/46 15/6/47 14/5/48
f 16/1/49 15/6/50 2/16/51 4/17/52
f 3/18/53 17/2/54 16/1/55 4/19/56
f 1/20/57 14/5/58 17/2/59 3/21/60
