mtllib materials.mtl
v 0.4328114 -0.3474938 0.4239806
v -0.4171888 -0.347494 0.4239805
v -0.4171888 -0.257494 0.4239805
v 0.4328115 -0.2574939 0.4239806
v 0.4328116 -0.3474936 -0.4260197
v 0.4328116 -0.2574936 -0.4260197
v -0.4171888 -0.2574939 -0.4260198
v -0.4171888 -0.3474938 -0.4260198
v 0.3478115 -0.2574937 0.3489805
v -0.3421888 -0.257494 0.3489805
v -0.3421891 -0.1470233 0.3489807
v 0.3478117 -0.1470233 0.3489808
v 0.3478116 -0.2574936 -0.3510199
v 0.3478118 -0.1470231 -0.3510201
v -0.342189 -0.1470233 -0.3510202
v -0.3421888 -0.2574937 -0.3510199
v 0.2678116 -0.1470232 0.2689807
v -0.2621889 -0.1470234 0.2689806
v -0.2621893 -0.03655279 0.2689809
v 0.2678118 -0.03655279 0.2689811
v 0.2678117 -0.1470231 -0.2710199
v 0.2678119 -0.03655255 -0.2710204
v -0.2621893 -0.03655279 -0.2710203
v -0.262189 -0.1470232 -0.2710199
v 0.1778117 -0.03655255 0.1889811
v -0.1821891 -0.03655279 0.1889808
v -0.1821895 0.06391788 0.1889811
v 0.1778122 0.06391788 0.1889813
v 0.177812 -0.03655243 -0.1810201
v 0.1778122 0.06391811 -0.1810204
v -0.1821895 0.06391788 -0.1810201
v -0.1821892 -0.03655255 -0.1810199
v 0.1078116 0.06250632 0.108981
v -0.1021891 0.06250608 0.108981
v -0.1021894 0.1529768 0.1089813
v 0.1078119 0.1529768 0.1089813
v 0.1078117 0.06250644 -0.1110203
v 0.107812 0.152977 -0.1110204
v -0.1021897 0.1529768 -0.1110202
v -0.1021893 0.06250632 -0.1110198
v 0.06471562 0.1537421 0.06802797
v -0.06528354 0.1537418 0.06802797
v -0.06528383 0.2188842 0.06802821
v 0.0647158 0.2188843 0.06802821
v 0.0647158 0.1537422 0.01517034
v 0.06471592 0.2188846 0.01517028
v 0.03221595 0.2188846 0.01517028
v 0.03221595 0.1863134 0.01517034
v 0.03221595 0.1537422 0.0151704
v -0.0002839565 0.1537422 0.01517051
v -0.03278387 0.1537422 0.01517057
v -0.06528378 0.1537422 0.01517069
v -0.06528407 0.2188843 0.01517045
v -0.0327841 0.2188843 0.0151704
v -0.0002840757 0.2188845 0.01517034
v -0.03278399 0.1863133 0.01517045
v -0.0002840161 0.1863133 0.01517045
v 0.0005629659 0.1547714 0.05515319
v 0.000353992 0.1872035 0.05215454
v 0.0330534 0.1549095 0.05438185
v 0.03284454 0.1873417 0.05138314
v 0.06471562 0.1537421 -0.01720917
v 0.03221583 0.1537421 -0.01720917
v 0.03221589 0.1863133 -0.01720905
v 0.03221595 0.2188843 -0.01720893
v 0.06471586 0.2188843 -0.01720893
v 0.06471574 0.1537422 -0.07006693
v 0.06471592 0.2188846 -0.07006693
v -0.06528401 0.2188843 -0.07006669
v -0.06528372 0.1537422 -0.07006645
v -0.0652836 0.153742 -0.01720923
v -0.03278375 0.1537421 -0.01720917
v -0.0002839565 0.1537421 -0.01720917
v -0.0002840161 0.2188843 -0.01720893
v -0.03278399 0.2188842 -0.01720893
v -0.06528389 0.2188842 -0.01720893
v -0.03278387 0.1863132 -0.01720905
v -0.0002840161 0.1863133 -0.01720905
v 0.001090348 0.1547774 -0.05154455
v 0.03358412 0.1546004 -0.05213994
v 0.001292646 0.1873189 -0.05016917
v 0.03378654 0.1871419 -0.05076462
v 0.0647158 0.2188843 0.06802821
v -0.06623614 0.2398328 0.06898052
v 0.06555665 0.2398328 0.06898057
v 0.06471592 0.2188846 -0.07006687
v 0.06555665 0.2398331 -0.07101941
v -0.06623632 0.2398328 -0.07101917
v -0.06528401 0.2188843 -0.07006669
v -0.06528383 0.2188842 0.06802821
v 0.01353204 0.0450691 0.05232847
v 0.1097023 0.1527424 0.05178642
v 0.5400235 -0.3478113 0.05305159
v 0.5400235 -0.3478113 -0.05694842
v 0.109027 0.1527916 -0.05821288
v 0.01285684 0.04511845 -0.05767035
v 0.4300235 -0.3478113 0.05305159
v 0.4300235 -0.3478113 -0.05694842
v 0.1203959 0.1619353 0.05172479
v 0.5507172 -0.3386185 0.05299002
v 0.5400237 -0.3478116 0.03930163
v 0.5400237 -0.3478116 0.02555162
v 0.5400237 -0.3478115 -0.001948357
v 0.5400237 -0.3478116 -0.02944839
v 0.5400238 -0.3478116 -0.04319835
v 0.1091114 0.1527854 -0.04446298
v 0.1091958 0.1527792 -0.03071302
v 0.1093647 0.1527669 -0.003213227
v 0.1095334 0.1527547 0.02428657
v 0.1096178 0.1527485 0.03803647
v 0.5507111 -0.3386102 -0.05700994
v 0.1197144 0.1619929 -0.05827433
v 0.5507113 -0.3386104 -0.0432598
v 0.1197988 0.1619866 -0.04452443
v 0.5507174 -0.3386188 0.03924012
v 0.1203114 0.1619413 0.03797495
v 0.04985029 0.0450691 -0.01543099
v 0.0493083 0.1527425 -0.1116013
v 0.05057335 -0.3478113 -0.5419223
v -0.05942667 -0.3478113 -0.5419223
v -0.060691 0.1527916 -0.1109259
v -0.06014848 0.04511845 -0.01475579
v 0.05281144 -0.3474938 -0.4160197
v -0.05718857 -0.3474938 -0.4160197
v 0.04924667 0.1619353 -0.1222948
v 0.05051178 -0.3386185 -0.5526161
v 0.03682339 -0.3478116 -0.5419227
v 0.02307338 -0.3478116 -0.5419226
v -0.004426599 -0.3478115 -0.5419226
v -0.03192663 -0.3478116 -0.5419226
v -0.04567659 -0.3478116 -0.5419227
v -0.0469411 0.1527854 -0.1110104
v -0.03319114 0.1527792 -0.1110948
v -0.00569135 0.1527669 -0.1112636
v 0.02180845 0.1527547 -0.1114324
v 0.03555834 0.1527485 -0.1115168
v -0.05948812 -0.3386102 -0.5526099
v -0.06075245 0.1619929 -0.1216133
v -0.04573804 -0.3386104 -0.5526102
v -0.04700255 0.1619866 -0.1216978
v 0.03676188 -0.3386188 -0.5526164
v 0.03549683 0.1619413 -0.1222103
v -0.008536279 0.05219209 -0.05662417
v -0.1068771 0.1622956 -0.05606997
v -0.5469106 -0.3495556 -0.05736351
v -0.5469106 -0.3495556 0.05511928
v -0.1061865 0.1623459 0.05641198
v -0.007845819 0.05224264 0.05585724
v -0.4171886 -0.3474938 -0.05601966
v -0.4171886 -0.3474938 0.05398035
v -0.117812 0.1716961 -0.05600697
v -0.5578456 -0.3401554 -0.05730051
v -0.5469109 -0.3495559 -0.04330319
v -0.5469109 -0.3495559 -0.02924281
v -0.5469108 -0.3495557 -0.001122177
v -0.5469109 -0.3495559 0.02699852
v -0.5469109 -0.3495559 0.04105884
v -0.1062729 0.1623396 0.04235178
v -0.1063592 0.1623333 0.02829146
v -0.1065318 0.1623207 0.0001710057
v -0.1067044 0.1623081 -0.02794945
v -0.1067907 0.1623018 -0.04200971
v -0.5578394 -0.3401468 0.0551821
v -0.1171151 0.171755 0.05647486
v -0.5578396 -0.340147 0.04112166
v -0.1172014 0.1717484 0.04241461
v -0.5578458 -0.3401555 -0.04324031
v -0.1177256 0.171702 -0.04194677
v -0.0577718 0.04630029 0.01660734
v -0.0572176 0.1564039 0.1149482
v -0.0585112 -0.3554474 0.5549817
v 0.05397153 -0.3554473 0.5549817
v 0.05526435 0.1564541 0.1142576
v 0.05470967 0.04635084 0.01591688
v -0.06718862 -0.3474938 0.4239804
v 0.04281145 -0.3474938 0.4239804
v -0.0571546 0.1658043 0.125883
v -0.0584482 -0.346047 0.5659167
v -0.04445088 -0.3554476 0.554982
v -0.0303905 -0.3554475 0.5549819
v -0.002269864 -0.3554474 0.5549819
v 0.02585083 -0.3554475 0.5549819
v 0.03991115 -0.3554475 0.554982
v 0.04120415 0.1564478 0.1143439
v 0.02714384 0.1564415 0.1144302
v -0.0009766221 0.1564289 0.1146029
v -0.02909708 0.1564163 0.1147754
v -0.04315734 0.1564101 0.1148617
v 0.05403441 -0.3460385 0.5659105
v 0.05532724 0.1658632 0.1251862
v 0.03997397 -0.3460387 0.5659108
v 0.04126698 0.1658567 0.1252725
v -0.044388 -0.3460473 0.565917
v -0.0430944 0.1658103 0.1257967
v 0.07194871 0.2339185 0.07397997
v -0.07632601 0.2339182 0.07397997
v -0.07632643 0.2513664 0.07398033
v 0.07194906 0.2513664 0.07398045
v 0.07194889 0.2339185 -0.07601947
v 0.07194912 0.2513665 -0.07601959
v -0.07632667 0.2513661 -0.07601935
v -0.07632625 0.2339185 -0.07601893
vn -1.192093E-07 -1.84585E-07 1
vn 1.192093E-07 1.84585E-07 -1
vn 9.275118E-08 -1 -1.84585E-07
vn -9.275118E-08 1 1.84585E-07
vn 1 9.275118E-08 1.192093E-07
vn -1 -9.275118E-08 -1.192093E-07
vn -1.192093E-07 -1.84585E-07 1
vn 1.192093E-07 1.84585E-07 -1
vn 9.275118E-08 -1 -1.84585E-07
vn -9.275118E-08 1 1.84585E-07
vn 1 9.275118E-08 1.192093E-07
vn -1 -9.275118E-08 -1.192093E-07
vn -1.192093E-07 -1.84585E-07 1
vn 1.192093E-07 1.84585E-07 -1
vn 9.275118E-08 -1 -1.84585E-07
vn -9.275118E-08 1 1.84585E-07
vn 1 9.275118E-08 1.192093E-07
vn -1 -9.275118E-08 -1.192093E-07
vn -1.192093E-07 -1.84585E-07 1
vn 1.192093E-07 1.84585E-07 -1
vn 9.275118E-08 -1 -1.84585E-07
vn -9.275118E-08 1 1.84585E-07
vn 1 9.275118E-08 1.192093E-07
vn -1 -9.275118E-08 -1.192093E-07
vn -1.192093E-07 -1.84585E-07 1
vn 1.192093E-07 1.84585E-07 -1
vn 9.275118E-08 -1 -1.84585E-07
vn -9.275118E-08 1 1.84585E-07
vn 1 9.275118E-08 1.192093E-07
vn -1 -9.275118E-08 -1.192093E-07
vn 5.960447E-08 -1.038699E-06 0.9999999
vn -5.960447E-08 1.038699E-06 -0.9999999
vn 1.973093E-07 -1 -1.038699E-06
vn -1.973093E-07 1 1.038699E-06
vn 0.9999999 1.973093E-07 -5.960426E-08
vn -0.9999999 -1.973093E-07 5.960426E-08
vn -5.960447E-08 1.038699E-06 -0.9999999
vn -5.960447E-08 1.038699E-06 -0.9999999
vn -5.960447E-08 1.038699E-06 -0.9999999
vn -5.960447E-08 1.038699E-06 -0.9999999
vn 0.9997757 1.814283E-06 -0.02117771
vn 2.784184E-07 0.9995572 -0.02975661
vn -0.9998493 5.430827E-09 0.01735575
vn 3.132042E-06 -0.9997104 0.02406404
vn -0.0232415 -0.09219036 -0.99547
vn 5.960447E-08 -1.038699E-06 0.9999999
vn -5.960447E-08 1.038699E-06 -0.9999999
vn 1.973093E-07 -1 -1.038699E-06
vn -1.973093E-07 1 1.038699E-06
vn 0.9999999 1.973093E-07 -5.960426E-08
vn -0.9999999 -1.973093E-07 5.960426E-08
vn 5.960447E-08 -1.038699E-06 0.9999999
vn -9.420881E-07 0.9995457 0.03013999
vn 5.960447E-08 -1.038699E-06 0.9999999
vn 5.960447E-08 -1.038699E-06 0.9999999
vn 5.960447E-08 -1.038699E-06 0.9999999
vn 0.9988577 1.677827E-06 0.04778065
vn -4.598562E-07 -0.9996953 -0.02468582
vn -0.9992336 1.942208E-06 -0.03914101
vn 0.01807331 -0.04233287 0.9989401
vn -4.083525E-07 -0.04541474 0.9989682
vn -1.500386E-06 -0.04542248 -0.9989678
vn 1.748985E-06 -1 -1.686128E-06
vn -1.973093E-07 1 1.038699E-06
vn 0.9991954 -0.04010512 6.239244E-08
vn -0.9989683 -0.04541117 1.444667E-06
vn 2.133686E-07 -0.04541061 0.9989683
vn 7.207339E-07 -1 -8.228891E-07
vn 0.0014299 0.003756722 0.999992
vn -0.001432445 -0.003758937 -0.9999921
vn -0.6856446 -0.7279366 1.092648E-07
vn 0.002061961 0.004300077 0.9999887
vn -2.726188E-07 -1 -1.353329E-07
vn -0.7458006 0.6661516 0.004876152
vn 4.843193E-08 0.001840613 0.9999985
vn -2.483404E-08 -0.001837174 -0.9999985
vn 0.7582997 0.6518915 -0.004364297
vn 0.7582997 0.6518915 -0.004364297
vn 0.7582997 0.6518915 -0.004364297
vn 0.7582997 0.6518915 -0.004364297
vn -0.002054168 -0.004294233 -0.9999887
vn 0.6524417 -0.7578391 -2.478486E-05
vn 0.002053401 0.004293657 0.9999888
vn 0.7578257 0.6524426 -0.0043536
vn -0.002058111 -0.004297026 -0.9999887
vn 0.6518881 -0.7583153 2.644345E-05
vn 0.7582996 0.6518916 -0.004376153
vn -0.6524302 0.7578364 0.004349709
vn -0.6518732 0.7583157 0.004335475
vn 0.9999919 0.003756661 -0.001430004
vn -0.9999919 -0.003758876 0.00143255
vn 3.532591E-08 -0.7147704 0.6993592
vn 0.9999886 0.004300017 -0.002062065
vn 1.651197E-05 -0.9999968 0.002522129
vn 0.004876306 0.6661515 0.7458006
vn 0.9995097 0.02573668 -0.0178327
vn -0.999509 -0.02576103 0.01783277
vn -0.004364253 0.6518916 -0.7582996
vn -0.004364253 0.6518916 -0.7582996
vn -0.004364253 0.6518916 -0.7582996
vn -0.004364253 0.6518916 -0.7582996
vn -0.9999886 -0.004294173 0.002054273
vn -2.494692E-05 -0.757839 -0.6524417
vn 0.9999887 0.004293596 -0.002053506
vn -0.004353555 0.6524427 -0.7578256
vn -0.9999886 -0.004296965 0.002058215
vn 2.628135E-05 -0.7583153 -0.651888
vn -0.004376109 0.6518917 -0.7582995
vn 0.004349871 0.7578363 0.6524302
vn 0.004335637 0.7583157 0.6518732
vn -0.001430019 0.003756542 -0.999992
vn 0.001432565 -0.003758758 0.999992
vn 0.698662 -0.715452 1.012741E-07
vn -0.00206208 0.004299899 -0.9999887
vn 0.01589254 -0.9998738 -1.499113E-05
vn 0.7458006 0.6661515 -0.00487642
vn 0.0105532 -0.01230216 -0.9998688
vn 0.008999485 -0.01391053 0.9998628
vn -0.7582996 0.6518915 0.004364125
vn -0.7582996 0.6518915 0.004364125
vn -0.7582996 0.6518915 0.004364125
vn -0.7582996 0.6518915 0.004364125
vn 0.002054287 -0.004294055 0.9999887
vn -0.6524417 -0.7578391 2.507809E-05
vn -0.00205352 0.004293478 -0.9999887
vn -0.7578257 0.6524426 0.004353428
vn 0.00205823 -0.004296847 0.9999887
vn -0.6518881 -0.7583153 -2.61501E-05
vn -0.7582995 0.6518916 0.004375981
vn 0.6524302 0.7578364 -0.004350002
vn 0.6518732 0.7583157 -0.004335769
vn -0.9999921 0.003756528 0.001429885
vn 0.9999921 -0.003758743 -0.001432431
vn 2.288441E-09 -0.7195317 -0.6944597
vn -0.9999888 0.004299884 0.002061946
vn -1.440242E-05 -0.9981621 -0.06060046
vn -0.004876306 0.6661515 -0.7458007
vn -0.9926105 0.09790199 0.0716936
vn 0.9879183 -0.1249024 -0.09174476
vn 0.004364077 0.6518916 0.7582996
vn 0.004364077 0.6518916 0.7582996
vn 0.004364077 0.6518916 0.7582996
vn 0.004364077 0.6518916 0.7582996
vn 0.9999888 -0.00429404 -0.002054154
vn 2.49698E-05 -0.757839 0.6524419
vn -0.9999888 0.004293464 0.002053387
vn 0.00435338 0.6524427 0.7578256
vn 0.9999888 -0.004296832 -0.002058096
vn -2.625836E-05 -0.7583152 0.6518883
vn 0.004375933 0.6518918 0.7582995
vn -0.004349894 0.7578363 -0.6524304
vn -0.00433566 0.7583156 -0.6518734
vn -4.003336E-08 -2.072987E-05 1
vn 1.192105E-07 2.272355E-06 -1
vn 1.142281E-07 -1 -2.272355E-06
vn -1.142281E-07 1 2.272355E-06
vn 1 -2.166387E-05 3.425199E-07
vn -1 -2.573568E-05 1.394918E-06
usemtl mat18
f 4//1 3//1 2//1 1//1
f 8//2 7//2 6//2 5//2
f 2//3 8//3 5//3 1//3
f 6//4 7//4 3//4 4//4
f 5//5 6//5 4//5 1//5
f 3//6 7//6 8//6 2//6
f 12//7 11//7 10//7 9//7
f 16//8 15//8 14//8 13//8
f 10//9 16//9 13//9 9//9
f 14//10 15//10 11//10 12//10
f 13//11 14//11 12//11 9//11
f 11//12 15//12 16//12 10//12
f 20//13 19//13 18//13 17//13
f 24//14 23//14 22//14 21//14
f 18//15 24//15 21//15 17//15
f 22//16 23//16 19//16 20//16
f 21//17 22//17 20//17 17//17
f 19//18 23//18 24//18 18//18
f 28//19 27//19 26//19 25//19
f 32//20 31//20 30//20 29//20
f 26//21 32//21 29//21 25//21
f 30//22 31//22 27//22 28//22
f 29//23 30//23 28//23 25//23
f 27//24 31//24 32//24 26//24
f 36//25 35//25 34//25 33//25
f 40//26 39//26 38//26 37//26
f 34//27 40//27 37//27 33//27
f 38//28 39//28 35//28 36//28
f 37//29 38//29 36//29 33//29
f 35//30 39//30 40//30 34//30
f 44//31 43//31 42//31 41//31
f 49//32 48//32 47//32 46//32 45//32
f 42//33 52//33 51//33 50//33 49//33 45//33 41//33
f 46//34 47//34 55//34 54//34 53//34 43//34 44//34
f 45//35 46//35 44//35 41//35
f 43//36 53//36 52//36 42//36
f 57//37 56//37 54//37 55//37
f 48//38 57//38 55//38 47//38
f 56//39 51//39 52//39 53//39 54//39
f 57//40 50//40 51//40 56//40
f 59//41 58//41 50//41 57//41
f 58//42 60//42 49//42 50//42
f 60//43 61//43 48//43 49//43
f 61//44 59//44 57//44 48//44
f 61//45 60//45 58//45 59//45
f 66//46 65//46 64//46 63//46 62//46
f 70//47 69//47 68//47 67//47
f 63//48 73//48 72//48 71//48 70//48 67//48 62//48
f 68//49 69//49 76//49 75//49 74//49 65//49 66//49
f 67//50 68//50 66//50 62//50
f 76//51 69//51 70//51 71//51
f 78//52 77//52 72//52 73//52
f 80//53 79//53 73//53 63//53
f 77//54 75//54 76//54 71//54 72//54
f 78//55 74//55 75//55 77//55
f 64//56 65//56 74//56 78//56
f 79//57 81//57 78//57 73//57
f 81//58 82//58 64//58 78//58
f 82//59 80//59 63//59 64//59
f 82//60 81//60 79//60 80//60
f 85//61 84//61 83//61
f 89//62 88//62 87//62 86//62
f 89//63 86//63 83//63
f 87//64 88//64 84//64 85//64
f 86//65 87//65 85//65 83//65
f 84//66 88//66 89//66 90//66
f 84//67 90//67 83//67
f 83//68 90//68 89//68
f 93//69 92//69 91//69
f 96//70 95//70 94//70
f 91//71 96//71 98//71 97//71
f 100//72 99//72 92//72 93//72
f 98//73 94//73 105//73 104//73 103//73 102//73 101//73 93//73 97//73
f 92//74 110//74 109//74 108//74 107//74 106//74 95//74 96//74 91//74
f 91//75 97//75 93//75
f 94//76 98//76 96//76
f 103//77 104//77 107//77 108//77
f 102//78 103//78 108//78 109//78
f 101//79 102//79 109//79 110//79
f 104//80 105//80 106//80 107//80
f 112//81 111//81 94//81 95//81
f 111//82 113//82 105//82 94//82
f 113//83 114//83 106//83 105//83
f 113//84 111//84 112//84 114//84
f 116//85 115//85 101//85 110//85
f 115//86 100//86 93//86 101//86
f 115//87 116//87 99//87 100//87
f 114//88 112//88 95//88 106//88
f 99//89 116//89 110//89 92//89
f 119//90 118//90 117//90
f 122//91 121//91 120//91
f 117//92 122//92 124//92 123//92
f 126//93 125//93 118//93 119//93
f 124//94 120//94 131//94 130//94 129//94 128//94 127//94 119//94 123//94
f 118//95 136//95 135//95 134//95 133//95 132//95 121//95 122//95 117//95
f 117//96 123//96 119//96
f 120//97 124//97 122//97
f 129//98 130//98 133//98 134//98
f 128//99 129//99 134//99 135//99
f 127//100 128//100 135//100 136//100
f 130//101 131//101 132//101 133//101
f 138//102 137//102 120//102 121//102
f 137//103 139//103 131//103 120//103
f 139//104 140//104 132//104 131//104
f 139//105 137//105 138//105 140//105
f 142//106 141//106 127//106 136//106
f 141//107 126//107 119//107 127//107
f 141//108 142//108 125//108 126//108
f 140//109 138//109 121//109 132//109
f 125//110 142//110 136//110 118//110
f 145//111 144//111 143//111
f 148//112 147//112 146//112
f 143//113 148//113 150//113 149//113
f 152//114 151//114 144//114 145//114
f 150//115 146//115 157//115 156//115 155//115 154//115 153//115 145//115 149//115
f 144//116 162//116 161//116 160//116 159//116 158//116 147//116 148//116 143//116
f 143//117 149//117 145//117
f 146//118 150//118 148//118
f 155//119 156//119 159//119 160//119
f 154//120 155//120 160//120 161//120
f 153//121 154//121 161//121 162//121
f 156//122 157//122 158//122 159//122
f 164//123 163//123 146//123 147//123
f 163//124 165//124 157//124 146//124
f 165//125 166//125 158//125 157//125
f 165//126 163//126 164//126 166//126
f 168//127 167//127 153//127 162//127
f 167//128 152//128 145//128 153//128
f 167//129 168//129 151//129 152//129
f 166//130 164//130 147//130 158//130
f 151//131 168//131 162//131 144//131
f 171//132 170//132 169//132
f 174//133 173//133 172//133
f 169//134 174//134 176//134 175//134
f 178//135 177//135 170//135 171//135
f 176//136 172//136 183//136 182//136 181//136 180//136 179//136 171//136 175//136
f 170//137 188//137 187//137 186//137 185//137 184//137 173//137 174//137 169//137
f 169//138 175//138 171//138
f 172//139 176//139 174//139
f 181//140 182//140 185//140 186//140
f 180//141 181//141 186//141 187//141
f 179//142 180//142 187//142 188//142
f 182//143 183//143 184//143 185//143
f 190//144 189//144 172//144 173//144
f 189//145 191//145 183//145 172//145
f 191//146 192//146 184//146 183//146
f 191//147 189//147 190//147 192//147
f 194//148 193//148 179//148 188//148
f 193//149 178//149 171//149 179//149
f 193//150 194//150 177//150 178//150
f 192//151 190//151 173//151 184//151
f 177//152 194//152 188//152 170//152
f 198//153 197//153 196//153 195//153
f 202//154 201//154 200//154 199//154
f 196//155 202//155 199//155 195//155
f 200//156 201//156 197//156 198//156
f 199//157 200//157 198//157 195//157
f 197//158 201//158 202//158 196//158
