mtllib materials.mtl
v -0.1346914 -0.03839695 0.1384081
v -0.1346914 -0.03839695 -0.1415919
v -0.1346914 -0.01839697 -0.1415919
v -0.1346914 -0.01839697 0.1384081
v 0.1353086 -0.03839695 0.1384081
v 0.1353086 -0.01839697 0.1384081
v 0.1353086 -0.01839697 -0.1415919
v 0.1353086 -0.03839695 -0.1415919
v -0.07469141 0.02160299 0.07840806
v -0.07469141 0.02160299 -0.0815919
v -0.07469141 0.04160297 -0.0815919
v -0.07469141 0.04160297 0.07840806
v 0.07530868 0.02160299 0.07840806
v 0.07530868 0.04160297 0.07840806
v 0.07530868 0.04160297 -0.0815919
v 0.07530868 0.02160299 -0.0815919
v -0.1546913 -0.05839694 0.158408
v -0.1546913 -0.05839705 -0.1615919
v -0.1546913 -0.03839695 -0.1615919
v -0.1546913 -0.03839695 0.158408
v 0.1553086 -0.05839694 0.158408
v 0.1553086 -0.03839684 0.158408
v 0.1553086 -0.03839695 -0.1615919
v 0.1553086 -0.05839694 -0.1615919
v 0.005367279 -0.123137 -0.2711213
v 0.01536715 -0.1231369 -0.06112134
v 0.01536715 0.06686306 -0.06112123
v -0.01474988 -0.1226168 -0.0620625
v -0.02474988 0.06738329 -0.06206244
v -0.03474987 -0.1226166 -0.2720626
v -0.05469131 0.04160309 -0.06159186
v -0.05469131 0.07160306 -0.06159186
v -0.05469143 0.07160306 0.05840814
v -0.05469143 0.04160309 0.05840814
v 0.0553087 0.04160309 -0.06159186
v 0.05530858 0.04160309 0.05840814
v 0.05530858 0.07160306 0.05840814
v 0.0553087 0.07160306 -0.06159186
v 0.1153088 -0.01839697 0.118408
v -0.1146913 -0.01839697 0.118408
v -0.1146913 0.001603007 0.118408
v 0.1153088 0.001603007 0.118408
v 0.1153088 -0.01839697 -0.121592
v 0.1153088 0.001603007 -0.121592
v -0.1146913 0.001603007 -0.121592
v -0.1146913 -0.01839697 -0.121592
v -0.0946914 0.001603007 0.09840804
v -0.0946914 0.001603007 -0.1015919
v -0.0946914 0.02160299 -0.1015919
v -0.0946914 0.02160299 0.09840804
v 0.09530866 0.001603007 0.0984081
v 0.09530866 0.02160299 0.0984081
v 0.09530866 0.02160299 -0.1015919
v 0.09530866 0.001603007 -0.1015919
v -0.1746913 -0.07839692 -0.1815921
v -0.1746913 -0.05839694 -0.1815921
v -0.1746916 -0.05839694 0.1784079
v -0.1746916 -0.07839692 0.1784079
v 0.1753087 -0.07839692 -0.181592
v 0.1753086 -0.07839692 0.178408
v 0.1753086 -0.05839694 0.178408
v 0.1753087 -0.05839694 -0.181592
v -0.1946913 -0.0983969 -0.2015919
v -0.1946913 -0.07839692 -0.2015919
v -0.1946915 -0.07839692 0.1984081
v -0.1946915 -0.0983969 0.1984081
v 0.1953087 -0.0983969 -0.2015918
v 0.1953086 -0.0983969 0.1984082
v 0.1953086 -0.07839692 0.1984082
v 0.1953087 -0.07839692 -0.2015918
v -0.2146913 -0.128397 -0.2215921
v -0.2146913 -0.09839702 -0.2215921
v -0.2146915 -0.09839702 0.218408
v -0.2146915 -0.128397 0.218408
v 0.2153088 -0.128397 -0.2215921
v 0.2153088 -0.128397 0.218408
v 0.2153087 -0.09839702 0.218408
v 0.2153087 -0.09839702 -0.2215921
v -0.01474988 -0.1236572 0.2679375
v -0.02474976 -0.1236571 0.05793756
v -0.02474976 0.06634283 0.05793732
v 0.01525021 -0.1236571 0.0579375
v 0.0252502 0.06634283 0.05793732
v 0.03525019 -0.123657 0.2679375
v -0.2646328 -0.123137 -0.01112133
v -0.0546329 -0.1231369 -0.02112126
v -0.05463278 0.06686306 -0.02112126
v -0.05463278 -0.1231369 0.01887876
v -0.05463266 0.06686306 0.02887875
v -0.2646328 -0.1231368 0.0388788
v 0.2653673 -0.1236572 0.01887882
v 0.05536723 -0.1236571 0.02887869
v 0.05536711 0.06634283 0.02887869
v 0.05536711 -0.1236571 -0.01112133
v 0.05536699 0.06634283 -0.02112132
v 0.2653673 -0.123657 -0.03112131
v 0.04530871 0.07160282 -0.03159189
v 0.04530871 0.07160282 0.0384081
v 0.04530871 0.09660292 0.0384081
v 0.04530871 0.121603 0.0384081
v 0.04530871 0.121603 -0.03159189
v 0.04530871 0.09660292 -0.03159189
v -0.04469121 0.07160282 -0.03159195
v -0.04469121 0.09660292 -0.03159195
v -0.04469121 0.121603 -0.03159195
v -0.04469121 0.121603 0.03840804
v -0.04469121 0.09660292 0.03840804
v -0.04469121 0.07160282 0.03840804
v 0.02280867 0.07160282 -0.03159189
v 0.01155865 0.07160282 -0.03159189
v 0.0003087521 0.07160282 -0.03159189
v -0.01094115 0.07160282 -0.03159189
v -0.02219117 0.07160282 -0.03159189
v -0.02219117 0.07160282 0.03840804
v -0.01094115 0.07160282 0.03840804
v 0.0003087521 0.07160282 0.03840804
v 0.01155865 0.07160282 0.03840804
v 0.02280867 0.07160282 0.03840804
v 0.04530871 0.131603 0.03840798
v 0.04530871 0.131603 -0.03159201
v 0.02280867 0.09660292 -0.03159189
v 0.02280867 0.09660292 0.03840804
v -0.04469121 0.131603 0.03840792
v -0.04469121 0.131603 -0.03159207
v 0.04530871 0.1416032 0.03840786
v 0.04530871 0.1416032 -0.03159213
v -0.04469121 0.1416032 0.0384078
v -0.04469121 0.1416032 -0.03159219
v -0.02219117 0.09660292 -0.03159189
v -0.01094115 0.09660292 -0.03159189
v 0.0003087521 0.09660292 -0.03159189
v 0.01155865 0.09660292 -0.03159189
v 0.01155865 0.09660292 0.03840804
v 0.0003087521 0.09660292 0.03840804
v -0.01094115 0.09660292 0.03840804
v -0.02219117 0.09660292 0.03840804
v -0.0496912 0.1166031 -0.03750098
v -0.04969132 0.125694 -0.03750098
v -0.04969132 0.125694 0.04431707
v -0.04969132 0.1166031 0.04431713
v 0.05030859 0.1166031 -0.03750098
v 0.05030847 0.1166031 0.04431713
v 0.05030859 0.125694 0.04431713
v 0.05030859 0.125694 -0.03750092
v -0.0496912 0.1366031 -0.03750098
v -0.04969132 0.145694 -0.03750098
v -0.04969132 0.145694 0.04431707
v -0.04969132 0.1366031 0.04431713
v 0.05030859 0.1366031 -0.03750098
v 0.05030847 0.1366031 0.04431713
v 0.05030859 0.145694 0.04431713
v 0.05030859 0.145694 -0.03750092
vn -1 -1.748456E-07 -8.742275E-08
vn 1 1.748456E-07 8.742275E-08
vn 1.748455E-07 -1 1.748456E-07
vn -1.748455E-07 1 -1.748456E-07
vn -8.742278E-08 1.748456E-07 1
vn 8.742278E-08 -1.748456E-07 -1
vn -1 -1.748456E-07 -8.742275E-08
vn 1 1.748456E-07 8.742275E-08
vn 1.748455E-07 -1 1.748456E-07
vn -1.748455E-07 1 -1.748456E-07
vn -8.742278E-08 1.748456E-07 1
vn 8.742278E-08 -1.748456E-07 -1
vn -1 -1.748456E-07 -8.742275E-08
vn 1 1.748456E-07 8.742275E-08
vn 1.748455E-07 -1 1.748456E-07
vn -1.748455E-07 1 -1.748456E-07
vn -8.742278E-08 1.748456E-07 1
vn 8.742278E-08 -1.748456E-07 -1
vn 0.9988682 6.564146E-08 -0.04756458
vn -0.01729281 -0.9998501 0.0008240702
vn 0.02535719 0.7406964 -0.6713611
vn -0.03126317 -0.001645739 0.9995099
vn -0.9941319 -0.05232273 0.09467905
vn 0.02535964 0.7406965 -0.6713609
vn -0.01299867 -0.9999147 0.001237422
vn -1 0 -2.622684E-07
vn 1 0 2.622684E-07
vn 2.622684E-07 1.192093E-07 -1
vn -2.622684E-07 -1.192093E-07 1
vn 0 -1 1.192093E-07
vn 0 1 -1.192093E-07
vn -1.192093E-07 -1.748456E-07 1
vn 1.192093E-07 1.748456E-07 -1
vn 1.748456E-07 -1 -1.748456E-07
vn -1.748456E-07 1 1.748456E-07
vn 1 1.748456E-07 1.192093E-07
vn -1 -1.748456E-07 -1.192093E-07
vn -1 -1.748456E-07 -8.742275E-08
vn 1 1.748456E-07 8.742275E-08
vn 1.748455E-07 -1 1.748456E-07
vn -1.748455E-07 1 -1.748456E-07
vn -8.742278E-08 1.748456E-07 1
vn 8.742278E-08 -1.748456E-07 -1
vn -1 0 -2.622684E-07
vn 1 0 2.622684E-07
vn 2.622684E-07 1.192093E-07 -1
vn -2.622684E-07 -1.192093E-07 1
vn 0 -1 1.192093E-07
vn 0 1 -1.192093E-07
vn -1 0 -2.622684E-07
vn 1 0 2.622684E-07
vn 2.622684E-07 1.192093E-07 -1
vn -2.622684E-07 -1.192093E-07 1
vn 0 -1 1.192093E-07
vn 0 1 -1.192093E-07
vn -1 0 -8.742279E-08
vn 1 0 8.742279E-08
vn 8.742279E-08 1.192093E-07 -1
vn -8.742279E-08 -1.192093E-07 1
vn 0 -1 1.192093E-07
vn 0 1 -1.192093E-07
vn -0.9988682 -9.23733E-08 0.04756459
vn 9.199036E-07 -1 -2.973758E-07
vn -7.261092E-07 0.7415361 0.6709129
vn -1.087034E-06 -8.938346E-07 -1
vn 0.9941319 -0.0523226 -0.09467904
vn -3.212456E-06 0.7415364 0.6709127
vn 4.049144E-06 -1 2.339764E-07
vn -0.04756471 -1.006898E-07 -0.9988683
vn 3.890655E-07 -1 5.473702E-07
vn -0.6709131 0.741536 7.907106E-07
vn 1 -4.15084E-07 -3.627257E-06
vn 0.09467917 -0.05232258 0.994132
vn -0.6709128 0.7415363 -2.264564E-06
vn -1.407344E-07 -1 4.347157E-06
vn 0.04756441 8.227438E-08 0.9988683
vn -2.696557E-07 -1 -7.450533E-07
vn 0.670913 0.7415361 -2.764548E-07
vn -1 -4.03665E-07 3.937046E-06
vn -0.09467886 -0.05232277 -0.994132
vn 0.6709126 0.7415366 3.420097E-06
vn 1.6657E-07 -1 -4.023303E-06
vn 1 0 1.748456E-07
vn -1 0 -1.748456E-07
vn 3.057097E-14 -1 -1.748456E-07
vn 1 3.905664E-06 6.840889E-08
vn 1.748456E-07 1.748456E-07 -1
vn -1.748456E-07 -1.748456E-07 1
vn -4.222592E-07 1.286355E-05 1
vn -1 3.918977E-06 -6.840835E-08
vn 4.093365E-07 -1.211852E-05 -1
vn 1 1.037288E-08 -3.80282E-08
vn -6.641266E-07 5.878685E-06 1
vn -1 4.364268E-08 3.802821E-08
vn 6.525307E-07 -5.878685E-06 -1
vn -3.057097E-14 1 1.748456E-07
vn 1.748456E-07 1.748456E-07 -1
vn 1.748456E-07 1.748456E-07 -1
vn 1.748456E-07 1.748456E-07 -1
vn 1.748456E-07 1.748456E-07 -1
vn 1.748456E-07 1.748456E-07 -1
vn 1.748456E-07 1.748456E-07 -1
vn -1.748456E-07 -1.748456E-07 1
vn -1.748456E-07 -1.748456E-07 1
vn -1.748456E-07 -1.748456E-07 1
vn -1.748456E-07 -1.748456E-07 1
vn -1.748456E-07 -1.748456E-07 1
vn -1.748456E-07 -1.748456E-07 1
vn -1 1.454083E-09 -2.63172E-07
vn 1 -1.454083E-09 2.63172E-07
vn 2.63172E-07 1.192093E-07 -1
vn -2.63172E-07 -1.192093E-07 1
vn -1.454083E-09 -1 1.192093E-07
vn 1.454083E-09 1 -1.192093E-07
vn -1 0 -2.622684E-07
vn 1 0 2.622684E-07
vn 2.622684E-07 1.192093E-07 -1
vn -2.622684E-07 -1.192093E-07 1
vn 0 -1 1.192093E-07
vn 0 1 -1.192093E-07
usemtl mat15
f 4//1 3//1 2//1 1//1
f 8//2 7//2 6//2 5//2
f 2//3 8//3 5//3 1//3
f 5//5 6//5 4//5 1//5
f 3//6 7//6 8//6 2//6
f 12//7 11//7 10//7 9//7
f 16//8 15//8 14//8 13//8
f 10//9 16//9 13//9 9//9
f 13//11 14//11 12//11 9//11
f 11//12 15//12 16//12 10//12
f 20//13 19//13 18//13 17//13
f 24//14 23//14 22//14 21//14
f 18//15 24//15 21//15 17//15
f 21//17 22//17 20//17 17//17
f 19//18 23//18 24//18 18//18
f 27//19 26//19 25//19
f 26//20 28//20 25//20
f 27//22 29//22 28//22 26//22
f 29//23 30//23 28//23
f 28//25 30//25 25//25
f 34//26 33//26 32//26 31//26
f 38//27 37//27 36//27 35//27
f 32//28 38//28 35//28 31//28
f 36//29 37//29 33//29 34//29
f 35//30 36//30 34//30 31//30
f 42//32 41//32 40//32 39//32
f 46//33 45//33 44//33 43//33
f 40//34 46//34 43//34 39//34
f 43//36 44//36 42//36 39//36
f 41//37 45//37 46//37 40//37
f 50//38 49//38 48//38 47//38
f 54//39 53//39 52//39 51//39
f 48//40 54//40 51//40 47//40
f 51//42 52//42 50//42 47//42
f 49//43 53//43 54//43 48//43
f 58//44 57//44 56//44 55//44
f 62//45 61//45 60//45 59//45
f 56//46 62//46 59//46 55//46
f 60//47 61//47 57//47 58//47
f 59//48 60//48 58//48 55//48
f 66//50 65//50 64//50 63//50
f 70//51 69//51 68//51 67//51
f 64//52 70//52 67//52 63//52
f 68//53 69//53 65//53 66//53
f 67//54 68//54 66//54 63//54
f 74//56 73//56 72//56 71//56
f 78//57 77//57 76//57 75//57
f 72//58 78//58 75//58 71//58
f 76//59 77//59 73//59 74//59
f 75//60 76//60 74//60 71//60
f 81//62 80//62 79//62
f 80//63 82//63 79//63
f 81//65 83//65 82//65 80//65
f 83//66 84//66 82//66
f 82//68 84//68 79//68
f 87//69 86//69 85//69
f 86//70 88//70 85//70
f 87//72 89//72 88//72 86//72
f 89//73 90//73 88//73
f 88//75 90//75 85//75
f 93//76 92//76 91//76
f 92//77 94//77 91//77
f 93//79 95//79 94//79 92//79
f 95//80 96//80 94//80
f 94//82 96//82 91//82
f 102//83 101//83 100//83 99//83 98//83 97//83
f 108//84 107//84 106//84 105//84 104//84 103//84
f 98//85 118//85 117//85 116//85 115//85 114//85 108//85 103//85 113//85 112//85 111//85 110//85 109//85 97//85
f 120//86 119//86 100//86 101//86
f 109//87 121//87 102//87 97//87
f 99//88 122//88 118//88 98//88
f 119//89 123//89 106//89 100//89
f 123//90 124//90 105//90 106//90
f 124//91 120//91 101//91 105//91
f 126//92 125//92 119//92 120//92
f 125//93 127//93 123//93 119//93
f 127//94 128//94 124//94 123//94
f 128//95 126//95 120//95 124//95
f 121//97 132//97 131//97 130//97 129//97 104//97 105//97 101//97 102//97
f 109//99 110//99 132//99 121//99
f 113//100 103//100 104//100 129//100
f 112//101 113//101 129//101 130//101
f 136//103 135//103 134//103 133//103 122//103 99//103 100//103 106//103 107//103
f 136//105 107//105 108//105 114//105
f 135//106 136//106 114//106 115//106
f 122//107 133//107 117//107 118//107
usemtl mat17
f 6//4 7//4 3//4 4//4
f 14//10 15//10 11//10 12//10
f 22//16 23//16 19//16 20//16
f 29//21 27//21 25//21
f 25//24 30//24 29//24
f 33//31 37//31 38//31 32//31
f 44//35 45//35 41//35 42//35
f 52//41 53//41 49//41 50//41
f 57//49 61//49 62//49 56//49
f 65//55 69//55 70//55 64//55
f 73//61 77//61 78//61 72//61
f 83//64 81//64 79//64
f 79//67 84//67 83//67
f 89//71 87//71 85//71
f 85//74 90//74 89//74
f 95//78 93//78 91//78
f 91//81 96//81 95//81
f 128//96 127//96 125//96 126//96
f 140//109 139//109 138//109 137//109
f 144//110 143//110 142//110 141//110
f 138//111 144//111 141//111 137//111
f 142//112 143//112 139//112 140//112
f 141//113 142//113 140//113 137//113
f 139//114 143//114 144//114 138//114
f 148//115 147//115 146//115 145//115
f 152//116 151//116 150//116 149//116
f 146//117 152//117 149//117 145//117
f 150//118 151//118 147//118 148//118
f 149//119 150//119 148//119 145//119
f 147//120 151//120 152//120 146//120
usemtl mat23
f 111//98 112//98 130//98 131//98
f 110//102 111//102 131//102 132//102
f 134//104 135//104 115//104 116//104
f 133//108 134//108 116//108 117//108
